{
  "asset": {
    "version": "2.0",
    "generator": "GitHub Copilot"
  },
  "scene": 0,
  "scenes": [
    {
      "nodes": [
        0
      ]
    }
  ],
  "nodes": [
    {
      "name": "Ground",
      "mesh": 0
    }
  ],
  "meshes": [
    {
      "name": "GroundWithGrid",
      "primitives": [
        {
          "attributes": {
            "POSITION": 0,
            "NORMAL": 1
          },
          "indices": 2,
          "material": 0
        },
        {
          "attributes": {
            "POSITION": 3,
            "NORMAL": 4
          },
          "indices": 5,
          "material": 1
        }
      ]
    }
  ],
  "materials": [
    {
      "name": "GroundGrey",
      "pbrMetallicRoughness": {
        "baseColorFactor": [
          0.5,
          0.5,
          0.5,
          1
        ],
        "metallicFactor": 0,
        "roughnessFactor": 1
      },
      "doubleSided": true
    },
    {
      "name": "GridBlack",
      "pbrMetallicRoughness": {
        "baseColorFactor": [
          0.05,
          0.05,
          0.05,
          1
        ],
        "metallicFactor": 0,
        "roughnessFactor": 1
      },
      "doubleSided": true
    }
  ],
  "buffers": [
    {
      "byteLength": 16308,
      "uri": "data:application/octet-stream;base64,"
    }
  ],
  "bufferViews": [
    {
      "buffer": 0,
      "byteOffset": 0,
      "byteLength": 912,
      "target": 34962
    },
    {
      "buffer": 0,
      "byteOffset": 912,
      "byteLength": 912,
      "target": 34962
    },
    {
      "buffer": 0,
      "byteOffset": 1824,
      "byteLength": 228,
      "target": 34963
    },
    {
      "buffer": 0,
      "byteOffset": 2052,
      "byteLength": 6336,
      "target": 34962
    },
    {
      "buffer": 0,
      "byteOffset": 8388,
      "byteLength": 6336,
      "target": 34962
    },
    {
      "buffer": 0,
      "byteOffset": 14724,
      "byteLength": 1584,
      "target": 34963
    }
  ],
  "accessors": [
    {
      "bufferView": 0,
      "componentType": 5126,
      "count": 76,
      "type": "VEC3",
      "min": [
        -5.1,
        0,
        -5.1
      ],
      "max": [
        5,
        2,
        5.1
      ]
    },
    {
      "bufferView": 1,
      "componentType": 5126,
      "count": 76,
      "type": "VEC3"
    },
    {
      "bufferView": 2,
      "componentType": 5123,
      "count": 114,
      "type": "SCALAR",
      "min": [
        0
      ],
      "max": [
        75
      ]
    },
    {
      "bufferView": 3,
      "componentType": 5126,
      "count": 528,
      "type": "VEC3",
      "min": [
        -5.02,
        0,
        -5.02
      ],
      "max": [
        5.02,
        0.01,
        5.02
      ]
    },
    {
      "bufferView": 4,
      "componentType": 5126,
      "count": 528,
      "type": "VEC3"
    },
    {
      "bufferView": 5,
      "componentType": 5123,
      "count": 792,
      "type": "SCALAR",
      "min": [
        0
      ],
      "max": [
        527
      ]
    }
  ]
}